<svg xmlns="http://www.w3.org/2000/svg" xmlns:xlink="http://www.w3.org/1999/xlink" width="500" zoomAndPan="magnify" viewBox="0 0 375 374.999991" height="500" preserveAspectRatio="xMidYMid meet" version="1.2"><defs><clipPath id="63bb2a844b"><path d="M 137 90.125 L 243.289062 90.125 L 243.289062 231 L 137 231 Z M 137 90.125 "/></clipPath></defs><g id="a6d6c89990"><path style=" stroke:none;fill-rule:nonzero;fill:#ffffff;fill-opacity:1;" d="M 147.726562 118.527344 C 147.726562 118.527344 183.996094 136.320312 194.273438 142.507812 C 204.546875 148.691406 214.949219 159.019531 209.917969 182.605469 C 206.355469 166.042969 170.578125 153.339844 159.363281 146.988281 C 148.667969 140.933594 147.203125 127.855469 147.726562 118.527344 Z M 147.726562 118.527344 "/><path style=" stroke:none;fill-rule:nonzero;fill:#ffffff;fill-opacity:1;" d="M 149.914062 146.699219 C 153.53125 156.347656 168.21875 159.804688 180.929688 166.070312 C 196.320312 173.652344 207.007812 179.539062 205.003906 197.527344 C 195.609375 184.730469 177.421875 184.039062 162.386719 177.101562 C 146.9375 169.972656 148.132812 154.457031 149.914062 146.699219 Z M 149.914062 146.699219 "/><path style=" stroke:none;fill-rule:nonzero;fill:#ffffff;fill-opacity:1;" d="M 157.441406 182.183594 C 166.757812 189.183594 184.949219 190.882812 191.417969 194.964844 C 199.625 200.140625 196 209.183594 196 209.183594 C 187.285156 195.980469 159.105469 209.261719 157.441406 182.183594 Z M 157.441406 182.183594 "/><g clip-rule="nonzero" clip-path="url(#63bb2a844b)"><path style=" stroke:none;fill-rule:nonzero;fill:#ffffff;fill-opacity:1;" d="M 194.636719 90.140625 C 194.636719 90.140625 179.894531 104.875 158.914062 109.609375 L 142.851562 102.878906 C 131.53125 120.285156 139.703125 137.550781 146.726562 140.304688 C 136.453125 124.371094 145.824219 111.058594 145.824219 111.058594 C 145.824219 111.058594 170.105469 122.117188 181.273438 127.671875 C 183.421875 122.433594 192.292969 116.429688 198.359375 115.878906 C 194.585938 109.015625 199.300781 103.511719 199.300781 103.511719 C 200.507812 108.75 205.277344 111.765625 212.671875 113.179688 C 220.0625 114.597656 223.46875 117.664062 222.527344 124.476562 C 228.816406 128.773438 227.660156 131.710938 226.039062 136.558594 C 224.359375 133.164062 220.21875 130.316406 216.496094 130.765625 C 212.148438 131.289062 208.492188 136.375 209.371094 142.796875 C 210.417969 150.273438 217.464844 152.652344 218.09375 168.242188 C 218.109375 168.625 218.117188 169.015625 218.121094 169.414062 C 218.121094 169.847656 218.113281 170.292969 218.097656 170.742188 C 218.070312 171.492188 218.023438 172.261719 217.949219 173.050781 C 217.941406 173.136719 217.933594 173.222656 217.925781 173.304688 C 216.734375 185.46875 210.0625 202.011719 198.046875 213.847656 C 193.488281 218.335938 189.578125 221.210938 186.292969 222.828125 C 186.027344 222.960938 185.761719 223.082031 185.503906 223.199219 C 185.132812 223.363281 184.769531 223.507812 184.417969 223.640625 C 183.585938 223.953125 182.796875 224.171875 182.054688 224.3125 C 181.925781 224.339844 181.796875 224.363281 181.667969 224.382812 C 173.59375 225.625 171.171875 216.914062 173.566406 208.449219 C 164.851562 222.65625 170.65625 231.621094 181.871094 230.59375 C 181.917969 230.589844 181.964844 230.585938 182.011719 230.582031 C 183.742188 230.410156 185.601562 230 187.550781 229.339844 C 188.328125 229.078125 189.125 228.773438 189.933594 228.425781 C 190.234375 228.292969 190.542969 228.160156 190.847656 228.015625 C 192.085938 227.445312 193.351562 226.777344 194.640625 226.007812 C 194.640625 226.007812 194.644531 226.003906 194.648438 226.003906 C 195.347656 225.582031 196.039062 225.160156 196.722656 224.734375 C 196.945312 224.59375 197.164062 224.453125 197.386719 224.3125 C 197.84375 224.023438 198.304688 223.730469 198.753906 223.4375 C 198.820312 223.394531 198.890625 223.351562 198.957031 223.308594 C 199.066406 223.238281 199.171875 223.160156 199.28125 223.089844 C 237.511719 197.925781 243.453125 163.785156 243.453125 147.75 C 243.453125 131.082031 243.453125 111.058594 243.453125 111.058594 C 215.773438 111.265625 194.636719 90.140625 194.636719 90.140625 Z M 194.636719 90.140625 "/></g><g style="fill:#ffffff;fill-opacity:1;"><g transform="translate(109.401501, 267.087052)"><path style="stroke:none" d="M 6.875 -9.4375 L 6.875 -5.1875 L 17.90625 -5.1875 L 17.90625 0 L 1.109375 0 L 1.109375 -24.046875 L 17.90625 -24.046875 L 17.90625 -18.875 L 6.875 -18.875 L 6.875 -14.609375 L 16.25 -14.609375 L 16.25 -9.4375 Z M 6.875 -9.4375 "/></g></g><g style="fill:#ffffff;fill-opacity:1;"><g transform="translate(128.417484, 267.087052)"><path style="stroke:none" d="M 21.203125 -15.84375 C 21.203125 -14.28125 20.804688 -12.832031 20.015625 -11.5 C 19.054688 -9.925781 17.703125 -8.832031 15.953125 -8.21875 L 21.125 0 L 14.65625 0 L 9.625 -7.65625 L 6.875 -7.65625 L 6.875 0 L 1.109375 0 L 1.109375 -24.046875 L 12.609375 -24.046875 C 15.347656 -24.046875 17.519531 -23.144531 19.125 -21.34375 C 20.507812 -19.769531 21.203125 -17.9375 21.203125 -15.84375 Z M 6.875 -18.875 L 6.875 -12.84375 L 12.578125 -12.84375 C 13.367188 -12.84375 14 -12.953125 14.46875 -13.171875 C 14.863281 -13.390625 15.144531 -13.597656 15.3125 -13.796875 C 15.5625 -14.097656 15.75 -14.445312 15.875 -14.84375 C 15.96875 -15.1875 16.015625 -15.519531 16.015625 -15.84375 C 16.015625 -16.1875 15.96875 -16.53125 15.875 -16.875 C 15.726562 -17.269531 15.519531 -17.613281 15.25 -17.90625 C 14.707031 -18.550781 13.828125 -18.875 12.609375 -18.875 Z M 6.875 -18.875 "/></g></g><g style="fill:#ffffff;fill-opacity:1;"><g transform="translate(148.483531, 267.687023)"><path style="stroke:none" d="M 14.015625 0 L 14.015625 -0.03125 L 1.109375 -24.046875 L 7.765625 -24.046875 L 14.0625 -12.0625 L 20.3125 -24.046875 L 26.96875 -24.046875 L 14.0625 -0.03125 Z M 14.015625 0 "/></g></g><g style="fill:#ffffff;fill-opacity:1;"><g transform="translate(175.712605, 267.687023)"><path style="stroke:none" d="M 6.875 -9.4375 L 6.875 -5.1875 L 17.90625 -5.1875 L 17.90625 0 L 1.109375 0 L 1.109375 -24.046875 L 17.90625 -24.046875 L 17.90625 -18.875 L 6.875 -18.875 L 6.875 -14.609375 L 16.25 -14.609375 L 16.25 -9.4375 Z M 6.875 -9.4375 "/></g></g><g style="fill:#ffffff;fill-opacity:1;"><g transform="translate(192.989704, 267.687023)"><path style="stroke:none" d="M 21.5 -3.03125 C 19.15625 -1.082031 16.476562 -0.109375 13.46875 -0.109375 C 10.0625 -0.109375 7.148438 -1.316406 4.734375 -3.734375 C 2.316406 -6.148438 1.109375 -9.0625 1.109375 -12.46875 C 1.109375 -15.894531 2.316406 -18.816406 4.734375 -21.234375 C 7.148438 -23.648438 10.0625 -24.859375 13.46875 -24.859375 C 16.5 -24.859375 19.175781 -23.875 21.5 -21.90625 L 17.796875 -18.234375 C 16.535156 -19.203125 15.09375 -19.6875 13.46875 -19.6875 C 11.5 -19.6875 9.8125 -18.984375 8.40625 -17.578125 C 7 -16.171875 6.296875 -14.46875 6.296875 -12.46875 C 6.296875 -10.5 7 -8.8125 8.40625 -7.40625 C 9.8125 -6 11.5 -5.296875 13.46875 -5.296875 C 15.09375 -5.296875 16.535156 -5.773438 17.796875 -6.734375 Z M 21.5 -3.03125 "/></g></g><g style="fill:#ffffff;fill-opacity:1;"><g transform="translate(215.409273, 267.687023)"><path style="stroke:none" d="M 19.390625 -18.28125 L 13.140625 -18.28125 L 13.140625 0 L 7.359375 0 L 7.359375 -18.28125 L 1.109375 -18.28125 L 1.109375 -24.046875 L 19.390625 -24.046875 Z M 19.390625 -18.28125 "/></g></g><g style="fill:#ffffff;fill-opacity:1;"><g transform="translate(233.648259, 267.687023)"><path style="stroke:none" d="M 12.953125 -23.9375 C 16.378906 -23.9375 19.300781 -22.726562 21.71875 -20.3125 C 24.132812 -17.894531 25.34375 -14.972656 25.34375 -11.546875 C 25.34375 -8.117188 24.132812 -5.195312 21.71875 -2.78125 C 19.300781 -0.363281 16.378906 0.84375 12.953125 0.84375 C 9.523438 0.84375 6.601562 -0.363281 4.1875 -2.78125 C 1.769531 -5.195312 0.5625 -8.117188 0.5625 -11.546875 C 0.5625 -14.972656 1.769531 -17.894531 4.1875 -20.3125 C 6.601562 -22.726562 9.523438 -23.9375 12.953125 -23.9375 Z M 18.0625 -6.4375 C 19.46875 -7.84375 20.171875 -9.546875 20.171875 -11.546875 C 20.171875 -13.546875 19.46875 -15.25 18.0625 -16.65625 C 16.65625 -18.0625 14.953125 -18.765625 12.953125 -18.765625 C 10.953125 -18.765625 9.25 -18.0625 7.84375 -16.65625 C 6.4375 -15.25 5.734375 -13.546875 5.734375 -11.546875 C 5.734375 -9.546875 6.4375 -7.84375 7.84375 -6.4375 C 9.300781 -5.03125 11.003906 -4.328125 12.953125 -4.328125 C 14.898438 -4.328125 16.601562 -5.03125 18.0625 -6.4375 Z M 18.0625 -6.4375 "/></g></g><g style="fill:#ffffff;fill-opacity:1;"><g transform="translate(259.545504, 267.687023)"><path style="stroke:none" d="M 21.203125 -15.84375 C 21.203125 -14.28125 20.804688 -12.832031 20.015625 -11.5 C 19.054688 -9.925781 17.703125 -8.832031 15.953125 -8.21875 L 21.125 0 L 14.65625 0 L 9.625 -7.65625 L 6.875 -7.65625 L 6.875 0 L 1.109375 0 L 1.109375 -24.046875 L 12.609375 -24.046875 C 15.347656 -24.046875 17.519531 -23.144531 19.125 -21.34375 C 20.507812 -19.769531 21.203125 -17.9375 21.203125 -15.84375 Z M 6.875 -18.875 L 6.875 -12.84375 L 12.578125 -12.84375 C 13.367188 -12.84375 14 -12.953125 14.46875 -13.171875 C 14.863281 -13.390625 15.144531 -13.597656 15.3125 -13.796875 C 15.5625 -14.097656 15.75 -14.445312 15.875 -14.84375 C 15.96875 -15.1875 16.015625 -15.519531 16.015625 -15.84375 C 16.015625 -16.1875 15.96875 -16.53125 15.875 -16.875 C 15.726562 -17.269531 15.519531 -17.613281 15.25 -17.90625 C 14.707031 -18.550781 13.828125 -18.875 12.609375 -18.875 Z M 6.875 -18.875 "/></g></g></g></svg>