<svg xmlns="http://www.w3.org/2000/svg" viewBox="120 80 130 160" width="512" height="512">
  <defs>
    <clipPath id="logo-clip">
      <path d="M 137 90.125 L 243.289062 90.125 L 243.289062 231 L 137 231 Z"/>
    </clipPath>
  </defs>
  <g fill="#ffffff">
    <path d="M 147.726562 118.527344 C 147.726562 118.527344 183.996094 136.320312 194.273438 142.507812 C 204.546875 148.691406 214.949219 159.019531 209.917969 182.605469 C 206.355469 166.042969 170.578125 153.339844 159.363281 146.988281 C 148.667969 140.933594 147.203125 127.855469 147.726562 118.527344 Z"/>
    <path d="M 149.914062 146.699219 C 153.53125 156.347656 168.21875 159.804688 180.929688 166.070312 C 196.320312 173.652344 207.007812 179.539062 205.003906 197.527344 C 195.609375 184.730469 177.421875 184.039062 162.386719 177.101562 C 146.9375 169.972656 148.132812 154.457031 149.914062 146.699219 Z"/>
    <path d="M 157.441406 182.183594 C 166.757812 189.183594 184.949219 190.882812 191.417969 194.964844 C 199.625 200.140625 196 209.183594 196 209.183594 C 187.285156 195.980469 159.105469 209.261719 157.441406 182.183594 Z"/>
    <g clip-path="url(#logo-clip)">
      <path d="M 194.636719 90.140625 C 194.636719 90.140625 179.894531 104.875 158.914062 109.609375 L 142.851562 102.878906 C 131.53125 120.285156 139.703125 137.550781 146.726562 140.304688 C 136.453125 124.371094 145.824219 111.058594 145.824219 111.058594 C 145.824219 111.058594 170.105469 122.117188 181.273438 127.671875 C 183.421875 122.433594 192.292969 116.429688 198.359375 115.878906 C 194.585938 109.015625 199.300781 103.511719 199.300781 103.511719 C 200.507812 108.75 205.277344 111.765625 212.671875 113.179688 C 220.0625 114.597656 223.46875 117.664062 222.527344 124.476562 C 228.816406 128.773438 227.660156 131.710938 226.039062 136.558594 C 224.359375 133.164062 220.21875 130.316406 216.496094 130.765625 C 212.148438 131.289062 208.492188 136.375 209.371094 142.796875 C 210.417969 150.273438 217.464844 152.652344 218.09375 168.242188 C 218.109375 168.625 218.117188 169.015625 218.121094 169.414062 C 218.121094 169.847656 218.113281 170.292969 218.097656 170.742188 C 218.070312 171.492188 218.023438 172.261719 217.949219 173.050781 C 217.941406 173.136719 217.933594 173.222656 217.925781 173.304688 C 216.734375 185.46875 210.0625 202.011719 198.046875 213.847656 C 193.488281 218.335938 189.578125 221.210938 186.292969 222.828125 C 186.027344 222.960938 185.761719 223.082031 185.503906 223.199219 C 185.132812 223.363281 184.769531 223.507812 184.417969 223.640625 C 183.585938 223.953125 182.796875 224.171875 182.054688 224.3125 C 181.925781 224.339844 181.796875 224.363281 181.667969 224.382812 C 173.59375 225.625 171.171875 216.914062 173.566406 208.449219 C 164.851562 222.65625 170.65625 231.621094 181.871094 230.59375 C 181.917969 230.589844 181.964844 230.585938 182.011719 230.582031 C 183.742188 230.410156 185.601562 230 187.550781 229.339844 C 188.328125 229.078125 189.125 228.773438 189.933594 228.425781 C 190.234375 228.292969 190.542969 228.160156 190.847656 228.015625 C 192.085938 227.445312 193.351562 226.777344 194.640625 226.007812 C 194.640625 226.007812 194.644531 226.003906 194.648438 226.003906 C 195.347656 225.582031 196.039062 225.160156 196.722656 224.734375 C 196.945312 224.59375 197.164062 224.453125 197.386719 224.3125 C 197.84375 224.023438 198.304688 223.730469 198.753906 223.4375 C 198.820312 223.394531 198.890625 223.351562 198.957031 223.308594 C 199.066406 223.238281 199.171875 223.160156 199.28125 223.089844 C 237.511719 197.925781 243.453125 163.785156 243.453125 147.75 C 243.453125 131.082031 243.453125 111.058594 243.453125 111.058594 C 215.773438 111.265625 194.636719 90.140625 194.636719 90.140625 Z"/>
    </g>
  </g>
</svg>


